<?xml version="1.0" encoding="utf-8" ?>
<svg baseProfile="tiny" height="100%" version="1.2" width="100%" xmlns="http://www.w3.org/2000/svg" xmlns:ev="http://www.w3.org/2001/xml-events" xmlns:xlink="http://www.w3.org/1999/xlink"><defs /><path d="M 126,319 Z" fill="none" stroke="white" stroke-width="1" /><path d="M 96,312 L 95,313 L 95,314 L 93,316 L 93,317 L 92,318 L 92,319 L 92,318 L 93,317 L 93,316 L 95,314 L 96,315 L 96,316 L 95,317 L 95,318 L 94,319 L 95,318 L 95,317 L 96,316 L 96,315 L 95,314 L 95,313 Z" fill="none" stroke="white" stroke-width="1" /><path d="M 101,307 L 101,308 L 100,309 L 101,308 Z" fill="none" stroke="white" stroke-width="1" /><path d="M 103,304 L 102,305 Z" fill="none" stroke="white" stroke-width="1" /><path d="M 111,303 L 111,304 L 110,305 L 109,305 L 110,305 L 112,303 Z" fill="none" stroke="white" stroke-width="1" /><path d="M 149,302 L 148,303 L 147,303 L 146,304 L 145,304 L 144,305 L 143,304 L 142,305 L 143,306 L 143,307 L 142,308 L 142,309 L 141,310 L 140,309 L 140,308 L 140,309 L 139,310 L 139,311 L 138,312 L 138,315 L 137,316 L 137,317 L 136,318 L 136,319 L 137,318 L 138,319 L 139,318 L 139,316 L 140,315 L 140,313 L 140,315 L 139,316 L 138,315 L 138,312 L 139,311 L 139,310 L 140,309 L 141,310 L 141,311 L 142,310 L 142,309 L 143,308 L 143,307 L 147,303 L 148,303 L 149,302 L 156,302 Z" fill="none" stroke="white" stroke-width="1" /><path d="M 131,301 L 132,302 L 131,303 L 131,304 L 132,305 L 132,306 L 131,307 L 131,308 L 130,309 L 130,311 L 130,309 L 132,307 L 132,306 L 133,305 L 133,304 L 136,301 L 139,301 L 140,302 L 144,302 L 140,302 L 139,301 L 135,301 L 133,303 L 132,302 L 132,301 Z" fill="none" stroke="white" stroke-width="1" /><path d="M 128,300 L 129,301 L 129,302 L 129,301 Z" fill="none" stroke="white" stroke-width="1" /><path d="M 111,294 L 111,297 L 112,298 L 112,299 L 113,300 L 113,301 L 115,303 L 111,307 L 110,307 L 110,308 L 107,311 L 106,310 L 106,309 L 108,307 L 104,311 L 104,312 L 100,316 L 104,312 L 104,311 L 105,310 L 106,310 L 107,311 L 106,312 L 106,313 L 102,317 L 102,318 L 101,319 L 104,316 L 104,315 L 106,313 L 106,312 L 107,311 L 108,311 L 109,310 L 109,309 L 114,304 L 115,304 L 116,303 L 117,304 L 120,304 L 121,305 L 121,309 L 120,310 L 120,314 L 119,315 L 119,318 L 118,319 L 119,318 L 120,319 L 121,318 L 121,315 L 122,314 L 122,310 L 123,309 L 123,305 L 124,304 L 124,303 L 126,301 L 127,302 L 127,304 L 128,305 L 128,306 L 129,307 L 128,308 L 128,311 L 126,313 L 126,314 L 125,315 L 125,316 L 124,317 L 124,319 L 124,318 L 125,317 L 125,315 L 126,314 L 127,315 L 127,317 L 128,318 L 128,319 L 128,318 L 127,317 L 127,316 L 128,315 L 128,314 L 129,313 L 130,314 L 130,319 L 130,313 L 129,313 L 127,315 L 126,314 L 126,313 L 128,311 L 128,308 L 129,307 L 128,306 L 128,304 L 127,303 L 127,302 L 126,301 L 126,300 L 125,299 L 124,300 L 123,299 L 121,299 L 120,300 L 119,300 L 118,301 L 117,301 L 115,303 L 113,301 L 113,300 L 112,299 L 112,298 L 113,297 L 114,298 L 113,297 L 113,295 L 113,297 L 112,298 L 111,297 Z" fill="none" stroke="white" stroke-width="1" /><path d="M 105,294 L 105,295 L 104,296 L 104,297 L 103,298 L 103,300 L 102,301 L 102,302 L 100,304 L 100,305 L 98,307 L 98,308 L 97,309 L 97,310 L 98,309 L 98,308 L 99,307 L 99,306 L 100,305 L 100,304 L 102,302 L 102,301 L 103,300 L 103,299 L 104,298 L 105,299 L 105,301 L 104,302 L 105,301 L 105,299 L 106,298 L 106,297 L 106,298 L 105,299 L 104,298 L 104,296 L 105,295 Z" fill="none" stroke="white" stroke-width="1" /><path d="M 82,292 Z" fill="none" stroke="white" stroke-width="1" /><path d="M 108,290 L 108,293 L 107,294 L 107,295 L 107,294 L 109,292 L 108,291 Z" fill="none" stroke="white" stroke-width="1" /><path d="M 109,288 L 113,292 L 114,292 L 116,294 L 117,294 L 120,297 L 119,298 L 118,298 L 117,299 L 118,298 L 119,298 L 121,296 L 120,296 L 118,294 L 117,294 L 115,292 L 114,292 L 110,288 Z" fill="none" stroke="white" stroke-width="1" /><path d="M 156,282 L 155,283 L 155,285 L 153,287 L 152,287 L 153,287 L 155,285 L 156,285 L 155,284 L 156,283 Z" fill="none" stroke="white" stroke-width="1" /><path d="M 92,278 L 90,280 L 89,280 L 85,284 L 84,284 L 82,286 L 81,286 L 79,288 L 80,287 L 81,287 L 83,285 L 84,285 L 89,280 L 90,280 Z" fill="none" stroke="white" stroke-width="1" /><path d="M 94,276 L 95,276 L 96,277 L 91,282 L 90,282 L 85,287 L 84,287 L 82,289 L 81,289 L 79,291 L 77,289 L 75,289 L 74,288 L 73,288 L 72,287 L 68,287 L 67,288 L 65,288 L 62,291 L 62,292 L 61,293 L 61,299 L 62,300 L 62,302 L 67,307 L 69,307 L 70,308 L 75,308 L 76,307 L 77,307 L 80,304 L 80,302 L 81,301 L 81,295 L 82,294 L 83,294 L 84,293 L 85,293 L 87,291 L 89,291 L 91,289 L 92,289 L 93,288 L 94,288 L 95,287 L 96,287 L 97,286 L 98,286 L 99,285 L 100,285 L 101,284 L 102,284 L 101,284 L 100,285 L 99,285 L 98,286 L 97,286 L 96,287 L 95,287 L 94,288 L 93,288 L 92,287 L 94,285 L 95,285 L 94,285 L 92,287 L 90,287 L 89,288 L 88,288 L 87,289 L 88,288 L 89,288 L 90,287 L 92,287 L 93,288 L 92,289 L 91,289 L 90,290 L 89,290 L 88,291 L 87,291 L 85,293 L 84,293 L 83,294 L 82,294 L 81,295 L 81,301 L 80,302 L 79,301 L 79,295 L 78,294 L 78,293 L 76,291 L 75,291 L 74,290 L 75,289 L 77,289 L 80,292 L 80,293 L 80,292 L 79,291 L 81,289 L 82,289 L 84,287 L 85,287 L 88,284 L 89,284 L 97,276 L 98,276 L 100,278 L 100,279 L 102,281 L 101,282 L 100,282 L 99,283 L 98,283 L 97,284 L 98,283 L 99,283 L 100,282 L 101,282 L 102,281 L 104,283 L 104,284 L 106,286 L 106,292 L 106,285 L 102,281 L 102,280 L 100,278 L 100,277 L 99,277 L 98,276 L 97,276 L 96,277 L 95,276 Z" fill="none" stroke="white" stroke-width="1" /><path d="M 155,272 L 155,276 L 154,277 L 154,278 L 150,282 L 149,282 L 148,281 L 149,280 L 148,280 L 147,281 L 146,281 L 148,281 L 149,282 L 148,283 L 146,283 L 148,283 L 149,282 L 150,282 L 151,281 L 152,281 L 154,279 L 154,278 L 155,277 Z" fill="none" stroke="white" stroke-width="1" /><path d="M 99,272 L 100,272 Z" fill="none" stroke="white" stroke-width="1" /><path d="M 147,263 L 151,263 L 152,264 L 153,263 L 154,263 L 155,264 L 155,265 L 154,266 L 153,266 L 154,266 L 155,267 L 155,268 L 154,269 L 154,270 L 152,272 L 152,276 L 151,277 L 147,277 L 145,275 L 145,274 L 144,273 L 144,272 L 143,271 L 143,270 L 142,269 L 142,270 L 141,271 L 142,270 L 144,272 L 144,274 L 145,275 L 145,276 L 146,277 L 152,277 L 152,273 L 153,272 L 153,271 L 155,269 L 155,263 L 153,263 L 152,264 L 151,263 Z" fill="none" stroke="white" stroke-width="1" /><path d="M 143,261 L 141,263 L 141,265 L 140,266 L 140,268 L 138,270 L 138,272 L 137,273 L 137,275 L 136,276 L 136,279 L 137,280 L 137,283 L 140,286 L 140,287 L 142,289 L 144,289 L 145,290 L 151,290 L 152,289 L 154,289 L 156,287 L 154,289 L 152,289 L 151,290 L 146,290 L 145,289 L 146,288 L 150,288 L 146,288 L 145,287 L 144,287 L 142,285 L 144,287 L 145,287 L 146,288 L 145,289 L 143,289 L 142,288 L 141,288 L 140,287 L 140,286 L 138,284 L 138,283 L 139,282 L 140,283 L 139,282 L 139,281 L 140,280 L 142,282 L 144,282 L 142,282 L 140,280 L 141,279 L 142,279 L 143,280 L 140,277 L 140,275 L 139,274 L 139,273 L 138,272 L 138,271 L 140,269 L 140,266 L 141,265 L 141,264 L 142,263 L 143,263 L 146,266 L 151,266 L 147,266 L 144,263 L 143,263 L 142,262 Z" fill="none" stroke="white" stroke-width="1" /><path d="M 40,260 L 41,261 L 41,262 L 40,263 L 39,262 L 40,263 L 42,261 L 42,260 L 41,261 Z" fill="none" stroke="white" stroke-width="1" /><path d="M 96,255 L 95,256 L 94,256 L 95,256 L 96,255 L 97,256 L 98,256 L 99,257 L 98,258 L 97,258 L 98,258 L 99,259 L 99,260 L 98,261 L 98,262 L 99,262 L 101,264 L 101,266 L 102,267 L 102,272 L 103,273 L 103,275 L 105,277 L 105,278 L 107,280 L 112,280 L 114,282 L 112,284 L 111,284 L 110,283 L 109,284 L 108,284 L 110,286 L 109,285 L 109,284 L 110,283 L 112,285 L 112,286 L 114,286 L 115,287 L 115,289 L 121,289 L 121,288 L 122,287 L 123,288 L 123,290 L 122,291 L 122,293 L 123,294 L 123,295 L 125,297 L 127,297 L 128,298 L 130,298 L 131,299 L 136,299 L 137,298 L 143,298 L 144,297 L 145,298 L 146,297 L 148,297 L 149,298 L 150,297 L 151,297 L 152,296 L 152,295 L 151,294 L 152,293 L 153,293 L 155,295 L 156,295 L 154,293 L 151,293 L 150,294 L 149,294 L 149,295 L 150,294 L 151,294 L 152,295 L 149,298 L 148,297 L 146,297 L 145,298 L 144,297 L 143,298 L 137,298 L 136,299 L 131,299 L 130,298 L 129,298 L 128,297 L 126,297 L 124,295 L 124,294 L 125,293 L 126,293 L 127,294 L 127,295 L 127,294 L 126,293 L 126,291 L 127,290 L 127,289 L 131,285 L 131,284 L 132,283 L 134,283 L 135,282 L 135,281 L 134,280 L 133,280 L 132,281 L 131,281 L 130,282 L 126,278 L 126,275 L 126,279 L 128,281 L 129,281 L 131,283 L 131,284 L 129,286 L 128,285 L 128,284 L 127,283 L 128,284 L 128,285 L 127,286 L 128,287 L 127,288 L 127,289 L 126,290 L 126,292 L 125,293 L 124,293 L 123,294 L 122,293 L 122,291 L 123,290 L 124,291 L 124,290 L 123,289 L 123,288 L 122,287 L 122,286 L 123,285 L 123,283 L 124,282 L 124,274 L 124,282 L 123,283 L 123,285 L 121,287 L 121,288 L 120,289 L 116,289 L 115,288 L 115,287 L 114,286 L 113,286 L 112,285 L 112,284 L 113,283 L 114,284 L 113,283 L 115,281 L 114,281 L 113,280 L 108,280 L 105,277 L 105,276 L 103,274 L 103,273 L 102,272 L 102,266 L 101,265 L 101,263 L 100,262 L 99,262 L 98,261 L 99,260 L 99,259 L 98,258 L 100,256 L 101,256 L 103,258 L 106,258 L 104,258 L 103,257 L 102,257 L 101,256 L 97,256 Z" fill="none" stroke="white" stroke-width="1" /><path d="M 60,250 Z" fill="none" stroke="white" stroke-width="1" /><path d="M 79,249 L 79,250 L 80,251 L 80,255 L 80,250 Z" fill="none" stroke="white" stroke-width="1" /><path d="M 95,247 L 96,247 Z" fill="none" stroke="white" stroke-width="1" /><path d="M 40,246 L 40,248 L 38,250 L 38,251 L 39,252 L 38,253 L 36,253 L 35,254 L 35,255 L 34,256 L 32,254 L 32,253 L 34,251 L 34,250 L 35,249 L 32,252 L 32,255 L 33,255 L 34,256 L 35,256 L 36,255 L 35,254 L 36,253 L 38,253 L 39,252 L 40,252 L 39,252 L 38,251 L 38,250 L 40,248 Z" fill="none" stroke="white" stroke-width="1" /><path d="M 66,243 L 65,244 Z" fill="none" stroke="white" stroke-width="1" /><path d="M 46,242 L 46,244 L 47,245 L 48,244 L 48,242 Z" fill="none" stroke="white" stroke-width="1" /><path d="M 50,238 L 51,239 L 50,240 L 49,240 L 51,240 L 51,238 Z" fill="none" stroke="white" stroke-width="1" /><path d="M 32,238 L 32,241 L 35,241 L 37,239 L 36,238 L 34,238 L 35,238 L 36,239 L 36,240 L 35,241 L 33,241 L 32,240 Z" fill="none" stroke="white" stroke-width="1" /><path d="M 52,230 Z" fill="none" stroke="white" stroke-width="1" /><path d="M 65,227 L 66,228 L 65,229 L 63,229 L 61,231 L 62,232 L 60,234 L 59,233 L 56,233 L 55,232 L 46,232 L 42,236 L 40,234 L 40,233 L 39,233 L 41,235 L 41,237 L 40,238 L 40,239 L 37,242 L 38,242 L 40,244 L 41,244 L 42,243 L 42,239 L 43,238 L 44,238 L 46,236 L 46,235 L 47,234 L 53,234 L 56,237 L 56,239 L 55,240 L 57,240 L 58,239 L 56,237 L 57,236 L 58,236 L 56,236 L 55,235 L 54,235 L 53,234 L 51,234 L 50,233 L 51,232 L 54,232 L 55,233 L 59,233 L 60,234 L 60,235 L 61,236 L 61,237 L 60,238 L 60,240 L 59,241 L 59,242 L 60,242 L 61,243 L 61,244 L 59,246 L 57,246 L 57,248 L 58,249 L 58,250 L 57,251 L 56,251 L 55,252 L 56,252 L 57,253 L 56,254 L 55,254 L 54,255 L 53,255 L 52,254 L 53,253 L 52,252 L 54,250 L 52,252 L 51,252 L 50,253 L 49,253 L 47,251 L 46,251 L 42,247 L 42,246 L 42,247 L 44,249 L 44,250 L 45,251 L 44,252 L 43,252 L 42,251 L 42,250 L 41,250 L 43,252 L 41,254 L 42,255 L 41,256 L 40,256 L 39,257 L 40,258 L 42,258 L 46,254 L 47,254 L 49,256 L 49,257 L 48,258 L 49,259 L 49,260 L 50,260 L 48,258 L 49,257 L 51,257 L 52,256 L 53,257 L 53,258 L 52,259 L 53,258 L 53,256 L 54,255 L 55,255 L 57,253 L 59,253 L 59,252 L 58,253 L 57,253 L 56,252 L 58,250 L 58,248 L 59,247 L 60,248 L 59,247 L 61,245 L 61,241 L 62,240 L 63,241 L 63,244 L 63,240 L 62,239 L 62,237 L 63,236 L 64,237 L 64,238 L 66,238 L 66,237 L 65,238 L 64,237 L 64,236 L 63,235 L 64,234 L 66,234 L 64,234 L 63,235 L 63,236 L 62,237 L 61,236 L 61,235 L 60,234 L 61,233 L 62,233 L 62,232 L 61,231 L 63,229 L 66,229 L 66,227 Z" fill="none" stroke="white" stroke-width="1" /><path d="M 106,226 L 107,226 Z" fill="none" stroke="white" stroke-width="1" /><path d="M 50,226 L 51,227 L 51,228 L 52,228 L 52,227 L 51,227 Z" fill="none" stroke="white" stroke-width="1" /><path d="M 61,225 L 61,227 L 60,228 L 60,229 L 59,230 L 59,231 L 59,230 L 61,228 L 61,226 L 62,225 Z" fill="none" stroke="white" stroke-width="1" /><path d="M 112,208 L 112,209 Z" fill="none" stroke="white" stroke-width="1" /><path d="M 138,196 L 138,197 Z" fill="none" stroke="white" stroke-width="1" /><path d="M 137,194 L 139,194 L 140,195 L 140,194 Z" fill="none" stroke="white" stroke-width="1" /><path d="M 151,191 L 155,191 L 156,192 L 155,191 Z" fill="none" stroke="white" stroke-width="1" /><path d="M 137,183 L 137,184 L 139,184 L 140,185 L 140,184 L 138,184 Z" fill="none" stroke="white" stroke-width="1" /><path d="M 111,175 L 112,176 L 112,175 Z" fill="none" stroke="white" stroke-width="1" /><path d="M 101,173 L 103,175 L 103,176 L 104,177 L 104,176 L 102,174 L 102,173 Z" fill="none" stroke="white" stroke-width="1" /><path d="M 105,172 L 105,173 Z" fill="none" stroke="white" stroke-width="1" /><path d="M 119,170 L 119,171 Z" fill="none" stroke="white" stroke-width="1" /><path d="M 105,169 L 106,170 Z" fill="none" stroke="white" stroke-width="1" /><path d="M 98,160 L 98,161 L 99,161 L 100,162 L 105,162 L 106,161 L 105,162 L 100,162 Z" fill="none" stroke="white" stroke-width="1" /><path d="M 99,158 L 101,160 L 104,160 L 105,159 L 104,160 L 101,160 Z" fill="none" stroke="white" stroke-width="1" /><path d="M 153,156 L 156,156 Z" fill="none" stroke="white" stroke-width="1" /><path d="M 150,154 L 150,155 L 151,155 Z" fill="none" stroke="white" stroke-width="1" /><path d="M 141,148 L 141,150 L 140,151 L 141,150 Z" fill="none" stroke="white" stroke-width="1" /><path d="M 114,147 L 113,148 L 111,148 L 107,152 L 107,154 L 106,155 L 106,157 L 107,158 L 107,159 L 107,158 L 106,157 L 106,155 L 107,154 L 108,155 L 108,156 L 109,157 L 109,159 L 110,159 L 112,161 L 109,158 L 109,157 L 108,156 L 108,155 L 109,154 L 109,153 L 111,151 L 112,151 L 113,150 L 114,150 L 115,149 L 118,149 L 119,150 L 120,150 L 123,153 L 123,156 L 122,157 L 122,158 L 118,162 L 114,162 L 113,163 L 111,163 L 109,161 L 108,161 L 109,162 L 110,162 L 111,163 L 113,163 L 114,164 L 118,164 L 119,163 L 121,163 L 123,165 L 123,166 L 124,167 L 123,168 L 122,168 L 122,169 L 121,170 L 121,171 L 122,172 L 122,174 L 121,175 L 120,174 L 120,175 L 121,175 L 122,176 L 121,177 L 121,179 L 120,180 L 119,179 L 119,177 L 118,177 L 117,176 L 118,175 L 118,173 L 117,172 L 117,169 L 116,168 L 116,166 L 116,168 L 117,169 L 117,172 L 118,173 L 118,175 L 117,176 L 116,176 L 115,177 L 114,177 L 112,179 L 111,178 L 112,179 L 111,180 L 110,180 L 111,181 L 110,182 L 110,185 L 109,186 L 106,183 L 105,184 L 104,184 L 103,185 L 104,185 L 106,183 L 107,184 L 107,185 L 108,186 L 107,187 L 108,186 L 112,190 L 112,191 L 113,192 L 112,193 L 113,192 L 112,191 L 112,190 L 111,189 L 111,188 L 109,186 L 110,185 L 110,182 L 112,180 L 112,179 L 114,177 L 115,177 L 116,178 L 114,180 L 114,181 L 112,183 L 112,184 L 113,185 L 114,185 L 115,186 L 115,187 L 114,188 L 114,190 L 115,191 L 115,192 L 116,192 L 118,194 L 121,194 L 121,186 L 122,185 L 123,186 L 123,191 L 127,191 L 128,190 L 130,190 L 131,189 L 134,189 L 135,188 L 139,188 L 140,187 L 145,187 L 146,186 L 147,186 L 148,185 L 151,188 L 149,190 L 142,190 L 141,191 L 132,191 L 131,192 L 130,192 L 129,193 L 128,193 L 126,195 L 125,195 L 124,196 L 123,196 L 123,199 L 124,200 L 122,202 L 121,202 L 120,203 L 119,203 L 118,204 L 117,204 L 114,207 L 112,205 L 112,203 L 110,201 L 110,200 L 111,199 L 113,199 L 114,198 L 115,198 L 116,199 L 117,199 L 118,200 L 118,201 L 119,200 L 118,200 L 117,199 L 116,199 L 115,198 L 116,197 L 116,195 L 115,194 L 115,195 L 116,196 L 113,199 L 112,199 L 111,198 L 111,197 L 110,196 L 110,195 L 109,195 L 108,194 L 108,192 L 109,191 L 108,192 L 106,190 L 106,189 L 104,187 L 105,188 L 105,189 L 104,190 L 102,188 L 102,187 L 101,186 L 101,185 L 100,185 L 99,184 L 100,183 L 102,183 L 103,182 L 104,182 L 105,181 L 105,180 L 106,179 L 106,178 L 106,179 L 102,183 L 100,183 L 99,184 L 94,184 L 91,181 L 94,184 L 93,185 L 92,185 L 89,182 L 89,181 L 88,180 L 88,173 L 89,172 L 90,173 L 90,179 L 90,174 L 91,173 L 91,172 L 92,171 L 95,174 L 95,176 L 97,178 L 97,179 L 98,180 L 98,181 L 98,180 L 97,179 L 97,177 L 98,176 L 99,177 L 99,178 L 100,179 L 100,181 L 101,181 L 100,180 L 100,179 L 99,178 L 99,177 L 98,176 L 98,175 L 96,173 L 95,174 L 92,171 L 95,168 L 96,168 L 97,167 L 99,167 L 100,168 L 101,167 L 103,167 L 97,167 L 96,166 L 97,165 L 104,165 L 108,169 L 108,171 L 107,172 L 107,176 L 107,172 L 108,171 L 109,172 L 109,178 L 108,179 L 108,180 L 107,181 L 108,182 L 107,181 L 108,180 L 108,179 L 109,178 L 109,172 L 111,170 L 111,169 L 109,171 L 108,170 L 108,168 L 106,166 L 105,166 L 104,165 L 98,165 L 97,164 L 97,163 L 96,162 L 96,160 L 95,159 L 95,152 L 96,151 L 97,152 L 97,158 L 97,152 L 98,151 L 99,152 L 99,153 L 100,152 L 101,152 L 99,152 L 98,151 L 99,150 L 101,150 L 99,150 L 97,152 L 96,151 L 96,150 L 94,148 L 84,148 L 83,149 L 82,149 L 81,150 L 81,151 L 80,152 L 80,153 L 79,154 L 79,156 L 78,157 L 78,160 L 79,161 L 79,162 L 81,164 L 82,164 L 83,165 L 85,165 L 86,166 L 89,166 L 91,168 L 90,169 L 90,170 L 89,171 L 89,172 L 88,173 L 88,180 L 89,181 L 89,182 L 92,185 L 93,185 L 94,186 L 99,186 L 100,185 L 102,187 L 102,188 L 103,189 L 103,190 L 104,191 L 104,193 L 105,194 L 105,197 L 106,198 L 106,203 L 104,205 L 104,206 L 99,211 L 99,212 L 96,215 L 94,215 L 93,214 L 89,214 L 88,213 L 85,213 L 84,212 L 81,212 L 80,211 L 78,211 L 77,210 L 75,210 L 74,209 L 71,209 L 70,208 L 69,208 L 68,207 L 66,207 L 63,204 L 63,202 L 62,201 L 62,199 L 61,198 L 61,196 L 58,193 L 54,193 L 53,194 L 51,194 L 49,196 L 48,196 L 46,198 L 46,199 L 45,200 L 45,207 L 47,209 L 47,210 L 48,211 L 48,212 L 49,213 L 49,214 L 50,214 L 51,215 L 52,215 L 53,216 L 56,216 L 57,215 L 59,215 L 61,213 L 63,213 L 64,214 L 65,214 L 66,215 L 67,215 L 68,216 L 69,216 L 70,217 L 71,217 L 72,218 L 74,218 L 76,220 L 77,220 L 78,221 L 79,221 L 80,222 L 81,222 L 82,223 L 83,223 L 85,225 L 86,225 L 87,226 L 88,226 L 91,229 L 91,232 L 90,233 L 90,245 L 88,247 L 84,247 L 83,248 L 81,248 L 80,247 L 80,246 L 77,243 L 76,243 L 75,242 L 73,242 L 72,241 L 71,241 L 70,242 L 68,242 L 71,242 L 72,243 L 73,242 L 75,242 L 76,243 L 75,244 L 74,244 L 75,244 L 78,247 L 75,244 L 76,243 L 77,243 L 80,246 L 80,247 L 82,249 L 82,256 L 81,257 L 81,258 L 80,259 L 79,258 L 79,257 L 79,258 L 75,262 L 73,262 L 72,263 L 70,263 L 69,262 L 68,262 L 67,261 L 68,262 L 69,262 L 70,263 L 69,264 L 67,264 L 64,261 L 64,260 L 65,259 L 65,258 L 64,257 L 64,256 L 63,255 L 63,249 L 67,245 L 68,245 L 69,244 L 70,245 L 70,246 L 71,247 L 72,247 L 70,245 L 70,244 L 68,244 L 66,246 L 64,246 L 64,248 L 63,249 L 62,248 L 62,247 L 62,248 L 63,249 L 63,255 L 64,256 L 64,258 L 63,259 L 62,258 L 62,257 L 61,256 L 61,252 L 61,257 L 62,258 L 62,259 L 64,261 L 64,262 L 65,263 L 66,263 L 67,264 L 69,264 L 70,265 L 72,265 L 73,264 L 76,264 L 77,263 L 78,263 L 80,261 L 80,260 L 81,259 L 81,257 L 82,256 L 86,256 L 87,255 L 90,255 L 91,256 L 91,259 L 90,260 L 89,260 L 89,261 L 88,262 L 87,262 L 84,265 L 83,265 L 81,267 L 80,267 L 79,268 L 78,268 L 76,270 L 75,270 L 74,271 L 73,271 L 72,272 L 71,272 L 70,273 L 69,273 L 68,274 L 67,274 L 66,275 L 65,275 L 64,276 L 63,276 L 62,277 L 60,277 L 59,278 L 56,278 L 55,277 L 54,277 L 53,276 L 47,276 L 44,279 L 44,280 L 43,281 L 43,289 L 44,290 L 44,291 L 45,291 L 48,294 L 49,294 L 48,293 L 47,293 L 43,289 L 43,281 L 44,280 L 44,279 L 47,276 L 53,276 L 54,277 L 53,278 L 48,278 L 46,280 L 48,278 L 52,278 L 53,279 L 55,279 L 56,280 L 60,280 L 61,279 L 62,279 L 63,278 L 64,278 L 63,278 L 62,277 L 63,276 L 64,276 L 65,275 L 66,275 L 67,276 L 66,277 L 67,276 L 69,276 L 70,275 L 71,275 L 72,274 L 73,274 L 75,272 L 77,272 L 78,271 L 79,271 L 80,270 L 79,271 L 77,271 L 76,270 L 77,269 L 78,269 L 79,268 L 80,268 L 82,266 L 83,266 L 85,264 L 86,264 L 87,263 L 88,264 L 88,265 L 87,266 L 86,266 L 84,268 L 83,268 L 82,269 L 83,268 L 84,268 L 86,266 L 87,266 L 90,263 L 89,264 L 88,264 L 87,263 L 90,260 L 92,262 L 92,263 L 93,264 L 93,265 L 94,266 L 94,267 L 95,268 L 95,269 L 96,270 L 96,272 L 97,273 L 96,274 L 90,274 L 89,275 L 86,275 L 90,275 L 91,276 L 90,277 L 85,277 L 84,276 L 82,276 L 84,276 L 85,277 L 84,278 L 81,278 L 80,277 L 78,277 L 77,278 L 75,278 L 74,279 L 72,279 L 71,280 L 68,280 L 67,281 L 66,281 L 65,282 L 63,282 L 62,283 L 61,283 L 60,284 L 59,284 L 59,286 L 58,287 L 58,288 L 57,289 L 57,290 L 55,292 L 54,291 L 55,292 L 54,293 L 51,293 L 49,291 L 48,291 L 45,288 L 45,282 L 45,288 L 48,291 L 49,291 L 51,293 L 55,293 L 56,294 L 55,295 L 51,295 L 56,295 L 59,292 L 59,291 L 60,290 L 60,287 L 62,285 L 63,285 L 64,284 L 66,284 L 67,283 L 68,283 L 69,282 L 71,282 L 72,281 L 74,281 L 75,280 L 78,280 L 79,279 L 80,279 L 81,278 L 84,278 L 85,277 L 90,277 L 91,276 L 92,276 L 91,276 L 90,275 L 91,274 L 97,274 L 97,273 L 96,272 L 96,269 L 97,268 L 98,269 L 98,270 L 98,269 L 97,268 L 97,266 L 96,265 L 96,264 L 95,263 L 95,262 L 94,261 L 94,259 L 95,258 L 94,259 L 94,261 L 95,262 L 95,263 L 96,264 L 96,265 L 97,266 L 97,268 L 96,269 L 95,268 L 95,267 L 93,265 L 93,263 L 92,262 L 92,261 L 91,261 L 90,260 L 91,259 L 91,254 L 90,253 L 91,252 L 90,251 L 90,248 L 89,247 L 90,246 L 90,233 L 91,232 L 91,228 L 92,227 L 92,224 L 93,223 L 93,222 L 94,221 L 95,222 L 95,230 L 94,231 L 94,234 L 93,235 L 93,240 L 92,241 L 92,244 L 93,245 L 93,252 L 94,253 L 94,254 L 94,253 L 93,252 L 94,251 L 95,251 L 95,250 L 94,251 L 93,250 L 93,246 L 94,245 L 97,245 L 98,244 L 99,244 L 101,242 L 102,242 L 103,243 L 101,245 L 101,253 L 100,254 L 101,253 L 103,255 L 104,255 L 105,256 L 106,256 L 105,256 L 101,252 L 101,245 L 102,244 L 103,244 L 104,245 L 103,244 L 104,243 L 105,243 L 103,243 L 102,242 L 103,241 L 104,241 L 103,241 L 102,242 L 101,242 L 100,243 L 99,243 L 98,244 L 97,243 L 97,242 L 95,240 L 95,239 L 95,240 L 97,242 L 97,243 L 98,244 L 97,245 L 96,245 L 94,243 L 94,242 L 94,243 L 95,244 L 94,245 L 93,245 L 92,244 L 92,241 L 93,240 L 93,235 L 94,234 L 94,232 L 95,231 L 99,231 L 101,229 L 102,229 L 103,228 L 105,230 L 106,230 L 111,235 L 111,236 L 111,235 L 110,234 L 110,233 L 107,230 L 108,229 L 109,229 L 112,232 L 112,233 L 113,234 L 113,236 L 113,233 L 111,231 L 112,230 L 112,229 L 114,227 L 113,227 L 112,228 L 112,230 L 111,231 L 109,229 L 110,228 L 110,227 L 110,228 L 109,229 L 108,229 L 107,230 L 106,230 L 104,228 L 103,228 L 101,226 L 102,225 L 102,224 L 103,223 L 104,223 L 105,224 L 104,225 L 104,226 L 104,225 L 105,224 L 110,224 L 111,225 L 114,225 L 115,224 L 117,224 L 118,225 L 117,226 L 116,226 L 117,226 L 118,225 L 118,224 L 115,224 L 114,225 L 111,225 L 110,224 L 106,224 L 105,223 L 103,223 L 102,222 L 104,220 L 105,221 L 104,220 L 104,218 L 103,218 L 102,219 L 102,220 L 103,221 L 101,223 L 102,224 L 101,225 L 101,227 L 102,227 L 103,228 L 102,229 L 101,229 L 100,230 L 99,230 L 98,229 L 99,228 L 98,229 L 96,229 L 95,228 L 95,223 L 97,221 L 97,220 L 98,219 L 98,218 L 100,216 L 101,216 L 103,214 L 103,213 L 104,212 L 104,211 L 105,210 L 106,210 L 107,209 L 108,209 L 107,209 L 106,210 L 104,210 L 104,211 L 103,212 L 103,213 L 99,217 L 98,217 L 98,218 L 97,219 L 97,220 L 95,222 L 94,221 L 94,220 L 95,219 L 95,217 L 94,217 L 95,218 L 95,219 L 94,220 L 94,221 L 93,222 L 93,223 L 92,224 L 91,223 L 91,222 L 90,221 L 90,220 L 91,219 L 92,220 L 91,219 L 91,218 L 92,217 L 91,216 L 89,216 L 91,216 L 92,217 L 90,219 L 90,220 L 89,221 L 88,221 L 86,219 L 85,219 L 83,217 L 82,217 L 81,216 L 80,216 L 79,215 L 78,215 L 77,214 L 78,213 L 80,213 L 81,214 L 84,214 L 85,215 L 87,215 L 85,215 L 84,214 L 85,213 L 88,213 L 89,214 L 93,214 L 94,215 L 97,215 L 99,213 L 99,212 L 104,207 L 104,206 L 106,204 L 106,203 L 107,202 L 106,201 L 106,198 L 105,197 L 105,194 L 104,193 L 105,192 L 104,191 L 104,190 L 105,189 L 107,191 L 107,192 L 108,193 L 108,194 L 109,195 L 108,196 L 109,195 L 111,197 L 111,199 L 110,200 L 109,199 L 109,198 L 109,199 L 110,200 L 109,201 L 110,201 L 111,202 L 108,205 L 109,206 L 108,207 L 109,207 L 111,205 L 112,206 L 113,206 L 115,208 L 115,210 L 114,211 L 113,211 L 114,211 L 115,210 L 115,207 L 119,203 L 121,203 L 122,204 L 122,205 L 121,206 L 120,206 L 118,208 L 120,206 L 121,206 L 122,205 L 122,204 L 121,203 L 123,201 L 124,201 L 125,202 L 124,203 L 125,204 L 125,206 L 124,207 L 123,207 L 124,207 L 125,206 L 125,204 L 124,203 L 125,202 L 127,202 L 127,200 L 128,199 L 130,199 L 131,198 L 131,196 L 131,197 L 129,199 L 128,199 L 127,200 L 126,200 L 127,201 L 126,202 L 125,202 L 124,201 L 124,199 L 123,198 L 123,197 L 124,196 L 125,196 L 126,195 L 127,196 L 129,196 L 127,196 L 126,195 L 127,194 L 128,194 L 129,193 L 130,193 L 132,191 L 141,191 L 142,190 L 149,190 L 151,188 L 156,188 L 152,188 L 150,186 L 152,184 L 152,183 L 153,182 L 153,181 L 154,180 L 154,179 L 154,180 L 153,181 L 152,180 L 152,178 L 153,177 L 153,176 L 154,175 L 155,176 L 155,177 L 155,176 L 156,175 L 156,173 L 156,175 L 155,176 L 154,175 L 154,172 L 155,171 L 156,171 L 155,170 L 156,169 L 156,167 L 156,169 L 155,170 L 155,171 L 154,172 L 154,175 L 153,176 L 153,177 L 152,178 L 152,179 L 151,180 L 151,181 L 150,182 L 150,183 L 147,186 L 146,186 L 145,187 L 140,187 L 139,188 L 135,188 L 134,187 L 135,186 L 137,186 L 134,186 L 133,185 L 133,184 L 132,183 L 132,182 L 130,180 L 131,179 L 132,179 L 130,179 L 129,178 L 129,177 L 127,175 L 127,174 L 126,173 L 126,172 L 125,171 L 125,170 L 124,169 L 124,167 L 123,166 L 123,165 L 121,163 L 123,161 L 123,160 L 124,159 L 124,158 L 124,159 L 122,161 L 122,162 L 121,163 L 119,163 L 118,162 L 119,161 L 120,161 L 120,160 L 122,158 L 122,157 L 123,156 L 123,153 L 124,152 L 125,153 L 125,156 L 125,153 L 124,152 L 124,150 L 122,148 L 120,148 L 119,147 Z" fill="none" stroke="white" stroke-width="1" /><path d="M 156,132 L 156,134 L 155,135 L 155,138 L 156,139 L 156,141 L 156,139 L 155,138 L 155,135 L 156,134 Z" fill="none" stroke="white" stroke-width="1" /><path d="M 142,130 L 142,132 L 144,134 L 144,135 L 146,137 L 146,138 L 148,140 L 148,141 L 149,142 L 149,143 L 151,145 L 151,146 L 150,147 L 150,148 L 149,149 L 149,152 L 149,149 L 150,148 L 150,147 L 152,145 L 153,146 L 153,147 L 152,148 L 152,149 L 151,150 L 151,152 L 153,154 L 156,154 L 153,154 L 151,152 L 151,150 L 152,149 L 152,148 L 153,147 L 153,146 L 152,145 L 151,145 L 149,143 L 149,142 L 150,141 L 151,142 L 150,141 L 150,140 L 150,141 L 149,142 L 148,141 L 148,140 L 147,139 L 147,138 L 148,137 L 149,138 L 148,137 L 148,136 L 147,135 L 147,134 L 146,133 L 146,132 L 144,130 L 145,131 L 145,132 L 147,134 L 147,135 L 148,136 L 148,137 L 147,138 L 145,136 L 145,135 L 143,133 L 143,132 L 142,131 Z" fill="none" stroke="white" stroke-width="1" /><path d="M 140,129 L 140,141 Z" fill="none" stroke="white" stroke-width="1" /><path d="M 138,129 L 138,133 L 137,134 L 137,137 L 138,138 L 137,139 L 138,139 L 138,138 L 137,137 L 137,134 L 138,133 Z" fill="none" stroke="white" stroke-width="1" /><path d="M 142,127 L 142,128 Z" fill="none" stroke="white" stroke-width="1" /><path d="M 92,126 L 93,127 Z" fill="none" stroke="white" stroke-width="1" /><path d="M 100,120 L 96,124 Z" fill="none" stroke="white" stroke-width="1" /><path d="M 115,119 L 115,120 L 116,120 L 118,122 L 119,122 L 120,123 L 123,123 L 124,124 L 125,124 L 124,124 L 123,123 L 120,123 L 118,121 L 117,121 L 116,120 L 117,119 Z" fill="none" stroke="white" stroke-width="1" /><path d="M 137,117 Z" fill="none" stroke="white" stroke-width="1" /><path d="M 106,117 L 107,117 Z" fill="none" stroke="white" stroke-width="1" /><path d="M 133,113 L 134,114 Z" fill="none" stroke="white" stroke-width="1" /><path d="M 148,112 L 146,114 L 146,116 L 146,115 L 148,113 Z" fill="none" stroke="white" stroke-width="1" /><path d="M 154,108 L 153,109 L 153,110 L 152,111 L 152,112 L 151,113 L 151,114 L 146,119 L 145,119 L 143,121 L 142,120 L 142,118 L 140,116 L 140,115 L 139,115 L 141,117 L 141,118 L 142,119 L 142,120 L 143,121 L 145,119 L 146,119 L 150,115 L 151,116 L 151,117 L 148,120 L 148,121 L 149,122 L 149,125 L 150,126 L 150,129 L 150,126 L 149,125 L 149,122 L 148,121 L 153,116 L 154,116 L 155,115 L 156,115 L 154,115 L 153,116 L 151,116 L 150,115 L 152,113 L 152,112 L 153,111 L 154,111 L 155,112 L 155,113 L 155,112 L 153,110 L 155,108 L 156,109 L 155,108 Z" fill="none" stroke="white" stroke-width="1" /><path d="M 128,108 L 129,108 L 130,109 L 130,110 L 129,111 L 128,110 L 130,112 L 130,113 L 131,114 L 131,116 L 130,117 L 129,117 L 128,118 L 129,119 L 129,120 L 128,121 L 123,121 L 128,121 L 130,123 L 134,123 L 137,120 L 139,122 L 140,121 L 140,120 L 140,121 L 139,122 L 138,121 L 138,119 L 137,119 L 133,123 L 130,123 L 128,121 L 129,120 L 129,118 L 131,116 L 132,117 L 135,117 L 134,116 L 133,117 L 132,117 L 131,116 L 131,113 L 130,112 L 130,111 L 131,110 L 132,110 L 133,109 L 134,109 L 134,108 L 132,110 L 131,110 L 130,109 L 130,108 Z" fill="none" stroke="white" stroke-width="1" /><path d="M 99,107 L 99,108 L 100,107 L 101,108 L 101,109 L 100,110 L 101,110 L 102,111 L 101,112 L 103,112 L 105,114 L 109,114 L 111,116 L 110,117 L 110,119 L 109,120 L 110,120 L 110,117 L 111,116 L 112,117 L 117,117 L 113,117 L 110,114 L 106,114 L 104,112 L 103,112 L 101,110 L 101,107 Z" fill="none" stroke="white" stroke-width="1" /><path d="M 82,107 L 81,108 L 80,108 L 79,109 L 78,109 L 77,110 L 76,109 L 75,110 L 76,111 L 74,113 L 75,112 L 76,112 L 79,109 L 80,109 Z" fill="none" stroke="white" stroke-width="1" /><path d="M 84,106 L 91,106 L 92,107 L 91,108 L 89,108 L 88,109 L 89,108 L 91,108 L 92,107 L 91,106 Z" fill="none" stroke="white" stroke-width="1" /><path d="M 62,106 L 62,107 L 61,108 L 63,106 L 64,106 Z" fill="none" stroke="white" stroke-width="1" /><path d="M 135,105 L 135,106 L 136,105 L 137,106 L 137,107 L 136,108 L 136,110 L 135,111 L 136,112 L 136,115 L 137,115 L 137,114 L 136,113 L 136,112 L 135,111 L 136,110 L 136,109 L 137,108 L 137,105 Z" fill="none" stroke="white" stroke-width="1" /><path d="M 62,104 L 65,104 L 66,105 L 67,105 L 68,106 L 67,105 L 66,105 L 65,104 Z" fill="none" stroke="white" stroke-width="1" /><path d="M 151,103 L 152,104 L 156,104 L 153,104 L 152,103 Z" fill="none" stroke="white" stroke-width="1" /><path d="M 149,103 Z" fill="none" stroke="white" stroke-width="1" /><path d="M 154,102 L 156,102 Z" fill="none" stroke="white" stroke-width="1" /><path d="M 156,99 Z" fill="none" stroke="white" stroke-width="1" /><path d="M 154,97 L 153,98 L 153,99 L 151,101 L 149,101 L 152,101 L 153,100 L 153,98 Z" fill="none" stroke="white" stroke-width="1" /><path d="M 147,94 L 147,95 L 149,97 L 150,97 L 151,98 L 151,96 L 150,97 L 149,96 L 149,95 L 148,95 Z" fill="none" stroke="white" stroke-width="1" /><path d="M 88,87 L 88,89 L 87,90 L 88,91 L 88,94 L 89,95 L 89,99 L 90,100 L 90,101 L 91,102 L 91,103 L 90,104 L 88,102 L 89,103 L 88,104 L 87,104 L 88,104 L 89,103 L 90,104 L 92,104 L 94,106 L 94,107 L 95,107 L 96,108 L 95,109 L 93,109 L 92,110 L 90,110 L 89,111 L 87,111 L 86,110 L 84,110 L 83,111 L 82,111 L 81,112 L 80,112 L 81,112 L 82,111 L 83,111 L 84,110 L 86,110 L 87,111 L 86,112 L 85,112 L 84,113 L 83,113 L 82,114 L 80,114 L 78,116 L 77,116 L 76,117 L 75,117 L 74,118 L 73,118 L 72,119 L 72,121 L 71,122 L 71,124 L 68,127 L 64,127 L 63,126 L 62,126 L 59,123 L 59,122 L 60,121 L 63,124 L 64,124 L 65,125 L 67,125 L 69,123 L 69,121 L 70,120 L 70,118 L 70,120 L 69,121 L 69,123 L 67,125 L 65,125 L 64,124 L 63,124 L 60,121 L 60,117 L 61,116 L 62,117 L 63,117 L 64,118 L 66,118 L 67,117 L 68,117 L 70,115 L 70,113 L 69,112 L 70,111 L 71,111 L 71,109 L 72,108 L 74,108 L 72,108 L 71,109 L 70,108 L 70,107 L 70,109 L 69,110 L 68,109 L 68,108 L 67,108 L 66,107 L 69,110 L 69,112 L 68,113 L 65,113 L 64,112 L 61,112 L 60,111 L 60,110 L 59,109 L 59,107 L 60,106 L 60,105 L 59,106 L 59,109 L 58,110 L 58,111 L 58,110 L 59,109 L 60,110 L 60,111 L 61,112 L 60,113 L 59,113 L 59,115 L 58,116 L 58,121 L 59,122 L 59,123 L 62,126 L 63,126 L 64,127 L 68,127 L 69,126 L 70,126 L 71,125 L 71,122 L 72,121 L 72,119 L 73,118 L 74,118 L 75,117 L 76,117 L 77,116 L 78,116 L 79,115 L 80,115 L 81,114 L 82,114 L 83,113 L 85,113 L 87,111 L 89,111 L 90,110 L 92,110 L 93,109 L 97,113 L 97,114 L 98,115 L 95,118 L 95,119 L 92,122 L 92,123 L 90,125 L 85,125 L 84,126 L 83,126 L 81,128 L 81,133 L 82,134 L 82,135 L 83,136 L 83,137 L 84,138 L 85,138 L 86,139 L 88,139 L 89,140 L 91,140 L 93,138 L 94,138 L 96,136 L 96,131 L 95,130 L 95,129 L 97,127 L 97,126 L 98,125 L 99,125 L 102,122 L 102,121 L 96,127 L 96,128 L 95,129 L 95,130 L 96,131 L 96,135 L 95,136 L 94,135 L 94,132 L 93,131 L 93,129 L 92,129 L 90,127 L 86,127 L 85,128 L 84,128 L 83,129 L 82,128 L 82,127 L 83,126 L 84,126 L 85,125 L 90,125 L 91,124 L 92,124 L 92,123 L 94,121 L 94,120 L 95,119 L 96,120 L 96,121 L 96,120 L 98,118 L 96,120 L 95,119 L 95,118 L 98,115 L 99,115 L 102,118 L 103,118 L 104,119 L 104,120 L 107,123 L 107,128 L 106,129 L 105,128 L 105,126 L 105,127 L 104,128 L 103,128 L 102,129 L 100,129 L 99,130 L 99,131 L 98,132 L 98,136 L 101,139 L 102,139 L 104,141 L 104,142 L 104,141 L 105,140 L 106,141 L 106,140 L 107,139 L 107,138 L 107,139 L 106,140 L 103,140 L 102,139 L 103,138 L 105,138 L 105,136 L 106,135 L 106,134 L 106,135 L 105,136 L 105,137 L 104,138 L 103,138 L 102,137 L 102,136 L 101,136 L 100,135 L 100,133 L 102,131 L 103,131 L 104,130 L 105,131 L 106,131 L 107,132 L 107,131 L 108,130 L 109,131 L 109,132 L 110,133 L 109,134 L 108,134 L 109,135 L 108,136 L 109,136 L 109,135 L 110,134 L 111,135 L 112,135 L 113,136 L 113,137 L 112,138 L 112,139 L 111,140 L 111,141 L 110,142 L 110,145 L 110,142 L 111,141 L 111,140 L 113,138 L 113,137 L 114,136 L 114,134 L 116,132 L 116,131 L 120,127 L 121,127 L 122,126 L 124,126 L 125,127 L 127,127 L 130,130 L 130,131 L 131,132 L 131,133 L 132,134 L 132,137 L 133,138 L 133,140 L 134,141 L 134,142 L 130,146 L 130,147 L 129,148 L 129,151 L 130,152 L 130,153 L 131,154 L 132,154 L 129,151 L 129,148 L 130,147 L 131,148 L 131,150 L 134,153 L 135,153 L 136,154 L 137,153 L 138,153 L 137,152 L 137,153 L 136,154 L 135,153 L 134,153 L 131,150 L 131,149 L 132,148 L 132,147 L 135,144 L 137,144 L 138,145 L 137,146 L 138,145 L 139,146 L 139,147 L 139,145 L 138,145 L 137,144 L 138,143 L 140,143 L 141,144 L 141,145 L 143,147 L 143,151 L 139,155 L 138,155 L 137,156 L 137,157 L 136,158 L 135,157 L 135,156 L 134,155 L 135,156 L 135,157 L 134,158 L 134,162 L 136,164 L 137,164 L 138,165 L 140,165 L 141,166 L 142,165 L 144,165 L 144,164 L 145,163 L 146,163 L 147,162 L 147,161 L 148,160 L 148,158 L 147,157 L 147,156 L 145,154 L 144,154 L 142,152 L 143,151 L 143,147 L 142,146 L 142,145 L 140,143 L 139,143 L 138,142 L 135,142 L 134,141 L 134,140 L 135,139 L 135,138 L 134,137 L 134,135 L 134,137 L 133,138 L 132,137 L 132,134 L 133,133 L 133,132 L 132,131 L 132,128 L 132,131 L 131,132 L 130,131 L 130,129 L 129,128 L 131,126 L 140,126 L 141,125 L 142,125 L 145,122 L 146,122 L 147,123 L 147,126 L 148,127 L 148,130 L 148,127 L 147,126 L 147,123 L 146,122 L 145,122 L 144,123 L 143,123 L 141,125 L 140,124 L 138,124 L 137,123 L 137,124 L 139,124 L 140,125 L 139,126 L 130,126 L 130,127 L 129,128 L 128,127 L 125,127 L 124,126 L 122,126 L 121,127 L 120,127 L 119,126 L 119,125 L 117,125 L 116,124 L 113,124 L 112,123 L 110,123 L 109,122 L 107,122 L 100,115 L 99,115 L 97,113 L 97,112 L 95,110 L 95,109 L 96,108 L 98,110 L 91,103 L 91,102 L 90,101 L 90,100 L 89,99 L 89,95 L 88,94 Z" fill="none" stroke="white" stroke-width="1" /><path d="M 151,86 L 150,87 L 149,87 L 150,87 L 151,86 L 154,86 L 156,88 L 155,89 L 154,89 L 153,88 L 152,88 L 151,89 L 152,88 L 153,88 L 156,91 L 155,92 L 155,93 L 154,94 L 153,94 L 153,95 L 154,94 L 156,96 L 156,97 L 156,96 L 154,94 L 156,92 L 156,91 L 155,90 L 155,89 L 156,88 L 154,86 Z" fill="none" stroke="white" stroke-width="1" /><path d="M 145,86 L 144,87 L 144,89 L 142,91 L 142,92 L 150,92 L 150,91 L 148,89 L 147,89 L 146,88 L 146,87 Z" fill="none" stroke="white" stroke-width="1" /><path d="M 86,82 L 86,88 L 86,83 L 87,82 Z" fill="none" stroke="white" stroke-width="1" /><path d="M 104,81 L 105,81 Z" fill="none" stroke="white" stroke-width="1" /><path d="M 68,80 L 71,80 Z" fill="none" stroke="white" stroke-width="1" /><path d="M 45,80 L 45,84 L 47,86 L 47,87 L 48,87 L 49,88 L 53,88 L 57,84 L 56,84 L 56,85 L 53,88 L 49,88 L 46,85 L 46,84 L 45,83 Z" fill="none" stroke="white" stroke-width="1" /><path d="M 48,79 L 47,80 L 47,82 L 48,83 L 48,84 L 50,86 L 52,86 L 54,84 L 52,86 L 50,86 L 48,84 L 48,83 L 47,82 L 47,80 Z" fill="none" stroke="white" stroke-width="1" /><path d="M 112,75 L 112,76 Z" fill="none" stroke="white" stroke-width="1" /><path d="M 48,75 L 45,78 L 46,78 L 48,76 L 49,77 L 51,77 L 55,81 L 55,82 L 55,81 L 54,80 L 54,79 L 53,79 L 52,78 L 52,77 L 53,76 L 54,77 L 55,77 L 53,75 Z" fill="none" stroke="white" stroke-width="1" /><path d="M 73,71 L 77,71 Z" fill="none" stroke="white" stroke-width="1" /><path d="M 156,67 L 156,68 Z" fill="none" stroke="white" stroke-width="1" /><path d="M 145,67 L 145,69 L 145,68 L 146,67 L 147,67 Z" fill="none" stroke="white" stroke-width="1" /><path d="M 113,62 L 114,63 L 114,64 L 115,65 L 114,66 L 112,66 L 111,65 L 111,63 L 111,64 L 110,65 L 109,65 L 108,64 L 109,65 L 110,65 L 111,66 L 114,66 L 115,65 L 117,67 L 117,68 L 118,69 L 118,70 L 118,69 L 117,68 L 117,67 L 115,65 L 115,64 L 114,63 L 114,62 Z" fill="none" stroke="white" stroke-width="1" /><path d="M 148,61 L 147,62 L 146,62 L 147,62 L 148,61 L 149,61 L 150,62 L 151,62 L 153,64 L 153,65 L 154,66 L 154,68 L 153,69 L 150,69 L 150,76 L 153,76 L 154,77 L 154,79 L 156,79 L 156,77 L 156,78 L 155,79 L 154,78 L 154,74 L 155,73 L 156,74 L 156,73 L 155,72 L 156,71 L 154,69 L 154,65 L 153,64 L 153,63 L 152,62 L 150,62 L 149,61 Z" fill="none" stroke="white" stroke-width="1" /><path d="M 94,61 L 94,62 L 95,62 Z" fill="none" stroke="white" stroke-width="1" /><path d="M 135,58 L 134,59 L 135,58 L 136,58 Z" fill="none" stroke="white" stroke-width="1" /><path d="M 144,56 L 144,57 L 145,57 Z" fill="none" stroke="white" stroke-width="1" /><path d="M 82,55 L 82,56 Z" fill="none" stroke="white" stroke-width="1" /><path d="M 98,52 Z" fill="none" stroke="white" stroke-width="1" /><path d="M 138,48 L 137,49 L 135,49 L 134,50 L 133,50 L 133,52 L 133,51 L 135,49 L 137,49 L 138,48 L 139,48 L 142,51 L 142,54 L 145,54 L 146,55 L 147,55 L 148,56 L 149,56 L 148,56 L 147,55 L 146,55 L 145,54 L 145,53 L 147,51 L 149,53 L 150,53 L 152,55 L 152,57 L 153,58 L 152,59 L 151,59 L 150,58 L 151,59 L 151,60 L 152,59 L 154,59 L 155,60 L 155,63 L 155,60 L 152,57 L 153,56 L 150,53 L 149,53 L 147,51 L 146,51 L 146,52 L 145,53 L 144,52 L 144,51 L 144,52 L 145,53 L 144,54 L 143,54 L 142,53 L 142,50 L 141,49 L 140,49 L 139,48 Z" fill="none" stroke="white" stroke-width="1" /><path d="M 108,43 Z" fill="none" stroke="white" stroke-width="1" /><path d="M 77,43 L 76,44 L 75,44 L 78,44 L 79,45 L 79,46 L 78,47 L 76,47 L 76,49 L 77,49 L 78,50 L 78,51 L 78,50 L 76,48 L 77,47 L 78,47 L 80,45 L 79,44 L 78,44 Z" fill="none" stroke="white" stroke-width="1" /><path d="M 72,43 L 73,44 L 73,46 L 74,47 L 73,48 L 74,49 L 74,50 L 75,51 L 75,52 L 75,51 L 74,50 L 74,46 L 73,45 L 73,43 Z" fill="none" stroke="white" stroke-width="1" /><path d="M 146,41 L 145,42 L 146,42 Z" fill="none" stroke="white" stroke-width="1" /><path d="M 56,37 L 57,37 L 58,38 L 58,41 L 59,42 L 62,42 L 59,42 L 58,41 L 58,39 L 59,38 L 58,37 Z" fill="none" stroke="white" stroke-width="1" /><path d="M 62,36 L 62,37 L 63,38 L 63,39 L 65,39 L 65,38 L 66,37 L 65,37 L 64,36 Z" fill="none" stroke="white" stroke-width="1" /><path d="M 99,34 Z" fill="none" stroke="white" stroke-width="1" /><path d="M 70,34 L 70,35 L 69,36 L 69,38 L 66,41 L 66,42 L 70,38 L 69,37 L 69,36 L 71,34 Z" fill="none" stroke="white" stroke-width="1" /><path d="M 96,33 L 95,34 L 95,36 L 97,38 L 97,39 L 97,38 L 96,37 L 96,36 L 95,35 L 97,33 Z" fill="none" stroke="white" stroke-width="1" /><path d="M 89,32 L 89,33 L 90,34 L 89,35 L 90,35 L 93,38 L 94,38 L 93,38 L 92,37 L 92,36 L 89,33 Z" fill="none" stroke="white" stroke-width="1" /><path d="M 138,28 L 138,30 L 137,31 L 137,33 L 136,34 L 136,35 L 135,36 L 135,37 L 134,38 L 135,37 L 135,36 L 136,35 L 136,34 L 137,33 L 137,31 L 138,30 Z" fill="none" stroke="white" stroke-width="1" /><path d="M 65,28 L 65,29 L 64,30 L 63,30 L 62,31 L 62,32 L 63,33 L 67,33 L 67,32 L 66,33 L 64,33 L 62,31 L 63,30 L 64,30 L 65,29 Z" fill="none" stroke="white" stroke-width="1" /><path d="M 90,26 L 93,29 L 93,33 L 93,32 L 94,31 L 93,30 L 93,29 Z" fill="none" stroke="white" stroke-width="1" /><path d="M 52,23 L 51,24 L 51,25 L 50,26 L 50,27 L 51,28 L 51,35 L 52,35 L 54,37 L 54,36 L 53,36 L 51,34 L 51,25 L 53,23 Z" fill="none" stroke="white" stroke-width="1" /><path d="M 79,16 L 78,17 L 78,23 L 80,23 L 81,24 L 82,23 L 83,23 L 85,25 L 85,26 L 83,28 L 82,28 L 81,27 L 78,27 L 77,26 L 77,25 L 76,24 L 76,25 L 78,27 L 81,27 L 82,28 L 83,28 L 84,27 L 85,27 L 85,25 L 83,23 L 82,23 L 81,24 L 80,23 L 79,23 L 78,22 L 78,18 L 80,16 L 82,16 Z" fill="none" stroke="white" stroke-width="1" /><path d="M 55,16 L 53,18 L 52,18 L 51,19 L 50,19 L 48,21 L 48,22 L 47,23 L 47,25 L 46,26 L 46,35 L 47,36 L 47,37 L 48,38 L 49,38 L 46,35 L 46,33 L 48,31 L 47,32 L 46,31 L 46,27 L 47,26 L 47,24 L 48,23 L 48,22 L 51,19 L 52,19 L 53,18 L 54,18 L 56,16 L 66,16 L 67,17 L 66,18 L 66,19 L 65,20 L 60,20 L 59,19 L 58,20 L 57,20 L 56,21 L 55,21 L 54,20 L 53,21 L 56,21 L 57,20 L 60,20 L 61,21 L 60,22 L 61,22 L 62,23 L 62,25 L 61,26 L 60,26 L 59,25 L 59,24 L 58,24 L 57,23 L 56,23 L 57,23 L 59,25 L 59,26 L 62,26 L 62,22 L 61,21 L 62,20 L 64,20 L 67,23 L 67,26 L 68,27 L 68,28 L 69,28 L 70,29 L 70,30 L 71,31 L 71,32 L 71,29 L 70,29 L 67,26 L 67,22 L 65,20 L 66,19 L 66,18 L 67,17 L 69,19 L 69,20 L 72,23 L 72,24 L 73,25 L 73,28 L 74,29 L 74,35 L 73,36 L 73,37 L 72,38 L 72,39 L 67,44 L 66,44 L 65,45 L 55,45 L 52,42 L 51,42 L 49,40 L 49,41 L 50,42 L 51,42 L 54,45 L 66,45 L 67,44 L 68,44 L 71,41 L 73,41 L 72,41 L 71,40 L 72,39 L 72,38 L 73,37 L 73,36 L 74,35 L 76,35 L 77,36 L 77,40 L 76,41 L 75,40 L 75,39 L 75,41 L 76,41 L 77,40 L 79,42 L 80,42 L 83,45 L 82,46 L 84,44 L 85,45 L 85,46 L 83,48 L 83,51 L 82,52 L 83,51 L 84,52 L 84,53 L 86,55 L 85,56 L 84,56 L 84,57 L 83,58 L 84,59 L 84,60 L 85,61 L 85,62 L 85,61 L 84,60 L 84,59 L 83,58 L 85,56 L 86,56 L 86,54 L 85,54 L 84,53 L 84,51 L 87,48 L 91,52 L 91,56 L 92,55 L 93,55 L 93,54 L 94,53 L 94,52 L 91,49 L 93,51 L 93,52 L 94,53 L 92,55 L 91,54 L 91,52 L 89,50 L 89,49 L 88,48 L 89,47 L 89,46 L 90,45 L 93,48 L 94,48 L 95,49 L 95,50 L 96,51 L 96,55 L 92,59 L 92,60 L 90,62 L 90,63 L 89,64 L 88,63 L 88,64 L 86,66 L 86,67 L 87,68 L 87,69 L 86,70 L 86,71 L 85,72 L 83,72 L 83,73 L 82,74 L 78,74 L 77,73 L 71,73 L 70,72 L 70,71 L 73,68 L 74,68 L 75,69 L 76,69 L 77,68 L 78,68 L 79,69 L 80,69 L 81,70 L 80,71 L 81,70 L 83,70 L 83,69 L 84,68 L 83,67 L 80,67 L 79,66 L 80,65 L 83,65 L 84,64 L 83,63 L 83,62 L 81,60 L 81,59 L 80,58 L 80,49 L 81,48 L 80,49 L 80,57 L 79,58 L 78,58 L 77,59 L 77,60 L 78,61 L 77,62 L 76,62 L 75,63 L 74,62 L 74,61 L 74,62 L 75,63 L 75,65 L 74,66 L 74,67 L 71,70 L 70,70 L 69,69 L 72,66 L 72,65 L 73,64 L 72,63 L 72,61 L 69,58 L 70,57 L 71,57 L 73,59 L 75,57 L 74,58 L 73,58 L 72,57 L 71,57 L 69,55 L 68,56 L 67,56 L 69,56 L 70,57 L 69,58 L 67,58 L 67,59 L 66,60 L 65,60 L 64,59 L 65,58 L 64,57 L 64,55 L 65,54 L 64,54 L 64,58 L 63,59 L 63,60 L 62,61 L 62,63 L 61,64 L 60,64 L 57,67 L 57,68 L 56,69 L 56,75 L 57,76 L 57,77 L 59,79 L 58,80 L 57,80 L 56,79 L 57,80 L 57,82 L 57,81 L 58,80 L 59,80 L 60,79 L 61,80 L 64,80 L 65,79 L 66,79 L 69,76 L 68,76 L 67,75 L 68,74 L 68,71 L 67,70 L 67,69 L 67,71 L 68,72 L 68,74 L 65,77 L 64,77 L 63,78 L 62,78 L 58,74 L 58,70 L 62,66 L 63,67 L 63,68 L 64,69 L 64,70 L 65,70 L 64,69 L 64,68 L 63,67 L 65,65 L 66,65 L 69,68 L 69,69 L 70,70 L 70,74 L 71,75 L 73,75 L 71,75 L 70,74 L 71,73 L 76,73 L 77,74 L 84,74 L 85,75 L 85,76 L 83,78 L 81,78 L 80,77 L 78,77 L 77,76 L 75,76 L 74,77 L 71,77 L 74,77 L 75,78 L 77,78 L 78,77 L 80,77 L 82,79 L 80,81 L 76,81 L 80,81 L 81,80 L 83,80 L 84,81 L 84,87 L 83,88 L 82,87 L 79,87 L 78,86 L 79,85 L 81,85 L 79,85 L 78,84 L 74,84 L 73,83 L 72,83 L 71,82 L 69,82 L 71,82 L 72,83 L 73,83 L 74,84 L 73,85 L 69,85 L 73,85 L 74,86 L 78,86 L 79,87 L 81,87 L 82,88 L 83,88 L 84,89 L 84,90 L 85,91 L 85,92 L 86,93 L 86,96 L 85,97 L 84,97 L 81,100 L 79,100 L 76,103 L 74,103 L 72,105 L 73,104 L 74,104 L 75,103 L 76,103 L 78,101 L 79,101 L 80,100 L 81,100 L 82,101 L 80,103 L 79,103 L 80,103 L 82,101 L 81,100 L 82,99 L 83,99 L 84,98 L 85,99 L 84,98 L 86,96 L 87,97 L 87,100 L 84,103 L 83,103 L 80,106 L 79,106 L 78,107 L 77,107 L 78,107 L 79,106 L 80,106 L 81,105 L 82,105 L 87,100 L 87,97 L 86,96 L 86,93 L 85,92 L 85,91 L 84,90 L 84,78 L 85,77 L 85,74 L 86,73 L 86,70 L 87,69 L 87,67 L 86,66 L 88,64 L 90,64 L 90,63 L 92,61 L 92,60 L 96,56 L 96,50 L 95,49 L 96,48 L 97,48 L 98,49 L 98,50 L 99,50 L 100,51 L 101,50 L 102,50 L 103,51 L 102,52 L 104,50 L 103,51 L 102,50 L 102,49 L 100,51 L 97,48 L 97,47 L 98,46 L 99,47 L 99,46 L 100,45 L 102,47 L 102,46 L 101,46 L 100,45 L 101,44 L 102,44 L 101,44 L 98,41 L 96,41 L 95,40 L 92,40 L 91,39 L 92,40 L 91,41 L 89,41 L 88,42 L 87,41 L 87,34 L 85,32 L 83,32 L 82,31 L 81,31 L 80,32 L 78,32 L 75,35 L 74,34 L 74,29 L 73,28 L 73,24 L 72,23 L 72,22 L 66,16 Z" fill="none" stroke="white" stroke-width="1" /><path d="M 124,14 L 124,15 L 125,16 L 123,18 L 125,16 L 124,15 Z" fill="none" stroke="white" stroke-width="1" /><path d="M 115,14 L 115,16 L 116,17 L 117,17 L 119,15 L 121,17 L 121,16 L 120,16 L 119,15 L 119,14 L 117,14 L 117,16 L 116,17 L 115,16 Z" fill="none" stroke="white" stroke-width="1" /><path d="M 83,11 L 82,12 L 80,12 L 82,12 L 83,11 L 85,11 L 89,15 L 89,22 L 88,23 L 88,24 L 89,23 L 89,14 L 87,12 L 86,12 L 85,11 Z" fill="none" stroke="white" stroke-width="1" /><path d="M 121,8 L 121,11 L 123,11 L 123,8 Z" fill="none" stroke="white" stroke-width="1" /><path d="M 108,5 L 108,6 L 107,7 L 108,8 L 107,9 L 107,11 L 108,12 L 109,12 L 108,11 L 110,9 L 112,9 L 110,9 L 108,11 L 107,10 L 107,9 L 108,8 L 107,7 L 109,5 Z" fill="none" stroke="white" stroke-width="1" /><path d="M 113,1 L 118,6 L 118,10 L 117,11 L 117,12 L 117,11 L 118,10 L 118,6 L 116,4 L 116,3 L 114,1 Z" fill="none" stroke="white" stroke-width="1" /><path d="M 119,0 L 119,3 L 121,3 L 122,2 L 121,1 L 121,0 L 121,2 L 120,3 L 119,2 Z" fill="none" stroke="white" stroke-width="1" /><path d="M 110,0 L 110,1 L 111,2 L 111,5 L 111,1 Z" fill="none" stroke="white" stroke-width="1" /><path d="M 105,0 L 105,2 L 104,3 L 104,4 L 103,5 L 103,7 L 104,8 L 104,10 L 103,11 L 102,10 L 102,9 L 102,10 L 106,14 L 106,15 L 107,16 L 107,17 L 110,20 L 106,24 L 104,22 L 103,23 L 102,23 L 102,27 L 103,28 L 106,28 L 106,24 L 110,20 L 113,20 L 114,21 L 113,22 L 112,22 L 112,23 L 111,24 L 111,30 L 113,32 L 113,33 L 112,34 L 112,43 L 110,45 L 107,45 L 103,41 L 102,41 L 101,40 L 101,39 L 100,38 L 102,36 L 102,35 L 101,35 L 102,36 L 100,38 L 100,39 L 101,40 L 101,41 L 102,41 L 104,43 L 105,43 L 107,45 L 106,46 L 104,46 L 104,47 L 105,47 L 107,45 L 110,45 L 111,44 L 112,44 L 113,45 L 112,46 L 113,45 L 115,45 L 116,46 L 115,47 L 116,48 L 115,49 L 116,48 L 117,49 L 117,50 L 115,52 L 114,51 L 115,52 L 115,54 L 114,55 L 113,55 L 113,56 L 111,58 L 108,58 L 107,57 L 107,52 L 106,51 L 106,49 L 107,48 L 109,48 L 110,47 L 109,47 L 108,48 L 107,48 L 106,49 L 106,52 L 107,53 L 107,57 L 106,58 L 105,57 L 105,54 L 104,53 L 103,54 L 100,54 L 98,56 L 98,57 L 97,58 L 98,59 L 98,61 L 97,62 L 97,64 L 96,65 L 96,67 L 95,68 L 93,68 L 92,69 L 91,69 L 90,70 L 90,72 L 91,73 L 90,74 L 90,76 L 91,77 L 91,78 L 89,80 L 89,81 L 90,82 L 90,83 L 91,84 L 90,85 L 89,85 L 88,84 L 89,85 L 90,85 L 91,86 L 91,90 L 91,86 L 90,85 L 91,84 L 91,83 L 89,81 L 90,80 L 90,79 L 91,78 L 91,77 L 90,76 L 90,75 L 92,73 L 93,73 L 95,71 L 96,71 L 98,73 L 98,77 L 99,78 L 99,80 L 102,83 L 106,83 L 108,81 L 110,83 L 111,82 L 110,82 L 108,80 L 108,79 L 107,79 L 105,77 L 105,76 L 106,75 L 107,75 L 108,76 L 108,77 L 108,76 L 112,72 L 115,72 L 116,73 L 117,73 L 118,74 L 118,75 L 115,78 L 115,80 L 114,81 L 113,80 L 113,79 L 112,78 L 111,79 L 110,78 L 110,77 L 110,79 L 111,80 L 112,79 L 114,81 L 115,81 L 116,80 L 117,80 L 116,80 L 115,79 L 118,76 L 118,75 L 119,74 L 118,73 L 116,73 L 115,72 L 111,72 L 110,73 L 109,72 L 109,70 L 110,69 L 110,68 L 109,67 L 110,68 L 110,69 L 109,70 L 108,70 L 107,69 L 107,66 L 105,66 L 105,67 L 103,69 L 103,73 L 104,74 L 104,75 L 105,76 L 105,77 L 106,78 L 106,79 L 107,79 L 108,80 L 108,81 L 106,83 L 103,83 L 100,80 L 101,79 L 102,79 L 101,78 L 101,79 L 100,80 L 99,79 L 99,77 L 100,76 L 100,74 L 100,76 L 99,77 L 98,76 L 98,73 L 99,72 L 100,72 L 101,71 L 101,69 L 101,71 L 100,72 L 99,72 L 98,73 L 96,71 L 97,70 L 96,71 L 95,71 L 94,72 L 93,72 L 91,70 L 93,68 L 99,68 L 102,65 L 103,65 L 106,62 L 106,59 L 107,58 L 109,58 L 110,59 L 109,60 L 109,61 L 110,60 L 110,59 L 111,58 L 112,58 L 113,59 L 115,59 L 116,58 L 116,56 L 117,55 L 118,55 L 118,52 L 118,54 L 116,56 L 116,57 L 114,59 L 113,59 L 112,58 L 112,57 L 115,54 L 115,52 L 119,48 L 121,48 L 122,49 L 123,49 L 124,50 L 126,50 L 126,49 L 125,48 L 126,47 L 127,47 L 128,46 L 127,46 L 125,48 L 123,46 L 123,45 L 123,46 L 126,49 L 125,50 L 124,50 L 122,48 L 119,48 L 118,47 L 118,45 L 119,44 L 121,44 L 122,43 L 124,43 L 122,43 L 121,44 L 117,44 L 116,45 L 113,45 L 112,44 L 113,43 L 114,43 L 115,42 L 118,42 L 119,41 L 121,41 L 122,40 L 123,41 L 125,41 L 126,42 L 127,41 L 130,41 L 131,40 L 132,41 L 132,42 L 131,43 L 128,43 L 127,44 L 126,44 L 127,44 L 128,43 L 131,43 L 132,42 L 133,43 L 134,43 L 135,44 L 136,44 L 135,44 L 134,43 L 133,43 L 132,42 L 132,41 L 133,40 L 134,41 L 135,41 L 136,42 L 137,42 L 139,44 L 137,46 L 134,46 L 131,49 L 131,55 L 132,55 L 133,56 L 132,57 L 132,58 L 128,62 L 129,63 L 131,63 L 132,62 L 134,62 L 136,64 L 136,66 L 138,66 L 138,64 L 138,65 L 137,66 L 136,65 L 136,64 L 135,63 L 135,62 L 131,62 L 130,61 L 132,59 L 132,58 L 134,56 L 136,56 L 137,55 L 138,56 L 138,59 L 137,60 L 136,60 L 137,61 L 137,62 L 137,60 L 139,58 L 140,58 L 141,57 L 142,57 L 142,56 L 140,58 L 139,58 L 138,57 L 140,55 L 139,56 L 138,55 L 137,55 L 136,56 L 134,54 L 133,54 L 132,55 L 131,54 L 131,49 L 134,46 L 138,46 L 138,45 L 140,43 L 141,44 L 141,45 L 142,46 L 144,46 L 145,47 L 146,47 L 150,51 L 151,51 L 153,53 L 154,53 L 155,52 L 156,53 L 156,54 L 155,55 L 156,56 L 156,57 L 156,56 L 155,55 L 156,54 L 156,53 L 155,52 L 155,51 L 156,50 L 154,50 L 153,49 L 153,46 L 153,49 L 155,51 L 155,52 L 154,53 L 152,51 L 151,51 L 147,47 L 146,47 L 144,45 L 144,44 L 143,43 L 143,39 L 142,39 L 141,40 L 141,42 L 140,43 L 139,42 L 139,32 L 140,31 L 140,27 L 139,26 L 140,27 L 140,31 L 139,32 L 139,42 L 138,43 L 137,42 L 136,42 L 135,41 L 134,41 L 133,40 L 132,41 L 131,40 L 131,39 L 132,38 L 132,37 L 133,36 L 133,35 L 134,34 L 134,33 L 135,32 L 135,30 L 136,29 L 136,26 L 137,25 L 137,24 L 138,23 L 138,22 L 137,21 L 139,19 L 143,19 L 144,20 L 147,17 L 148,17 L 150,19 L 149,20 L 148,20 L 148,21 L 147,22 L 147,25 L 146,26 L 145,25 L 146,26 L 146,27 L 148,29 L 147,30 L 147,31 L 146,32 L 146,33 L 145,34 L 145,35 L 144,36 L 143,35 L 143,32 L 142,31 L 142,28 L 142,31 L 143,32 L 143,36 L 145,38 L 145,39 L 145,38 L 146,37 L 147,38 L 147,39 L 148,40 L 148,43 L 147,44 L 147,45 L 147,44 L 148,43 L 149,44 L 148,43 L 148,40 L 149,39 L 150,40 L 149,39 L 149,38 L 150,37 L 150,35 L 152,33 L 151,33 L 150,32 L 151,31 L 156,31 L 150,31 L 147,28 L 147,27 L 148,26 L 151,29 L 156,29 L 151,29 L 147,25 L 147,22 L 150,19 L 154,19 L 155,20 L 156,20 L 155,20 L 154,19 L 150,19 L 149,18 L 150,17 L 155,17 L 156,18 L 155,17 L 150,17 L 149,16 L 149,15 L 150,14 L 150,13 L 152,11 L 152,10 L 153,9 L 153,5 L 152,4 L 152,3 L 150,1 L 149,1 L 148,0 L 153,5 L 153,9 L 150,12 L 149,11 L 148,11 L 148,12 L 146,14 L 145,13 L 147,15 L 146,16 L 147,17 L 145,19 L 140,19 L 139,18 L 140,17 L 144,17 L 144,15 L 144,16 L 143,17 L 141,17 L 140,16 L 141,15 L 140,16 L 139,15 L 139,13 L 140,12 L 142,12 L 142,9 L 143,8 L 144,8 L 146,10 L 144,8 L 145,7 L 146,7 L 148,9 L 148,8 L 147,8 L 145,6 L 140,6 L 139,5 L 139,3 L 141,1 L 143,1 L 144,2 L 143,3 L 142,3 L 143,4 L 143,3 L 144,2 L 147,2 L 151,6 L 151,8 L 150,9 L 151,8 L 151,6 L 147,2 L 144,2 L 143,1 L 144,0 L 143,0 L 142,1 L 140,1 L 139,2 L 139,6 L 136,9 L 136,11 L 135,12 L 136,13 L 136,15 L 137,16 L 137,17 L 139,19 L 137,21 L 138,22 L 137,23 L 137,25 L 136,26 L 135,25 L 134,25 L 135,25 L 136,26 L 136,29 L 135,30 L 135,31 L 134,32 L 134,34 L 132,36 L 132,37 L 131,38 L 131,39 L 129,41 L 127,41 L 126,42 L 125,41 L 124,41 L 122,39 L 122,38 L 121,37 L 121,36 L 120,35 L 120,33 L 122,31 L 122,29 L 123,28 L 123,26 L 122,25 L 122,23 L 121,22 L 123,20 L 125,20 L 126,19 L 128,21 L 127,22 L 128,21 L 130,21 L 131,20 L 131,16 L 131,20 L 130,21 L 128,21 L 126,19 L 126,18 L 127,17 L 129,19 L 127,17 L 129,15 L 129,14 L 130,13 L 130,12 L 131,11 L 133,11 L 133,6 L 133,10 L 132,11 L 131,11 L 130,10 L 130,7 L 131,6 L 131,5 L 130,4 L 130,0 L 130,5 L 131,6 L 129,8 L 128,7 L 127,8 L 125,6 L 127,4 L 127,1 L 126,0 L 127,1 L 127,3 L 125,5 L 125,6 L 128,9 L 128,11 L 127,12 L 127,13 L 127,12 L 128,11 L 128,9 L 129,8 L 130,9 L 130,12 L 129,13 L 129,14 L 128,15 L 128,16 L 124,20 L 123,20 L 122,21 L 121,21 L 121,22 L 120,23 L 119,23 L 118,22 L 116,22 L 115,23 L 114,23 L 113,22 L 114,21 L 113,20 L 114,19 L 115,19 L 116,20 L 119,20 L 120,19 L 121,19 L 120,19 L 119,20 L 116,20 L 114,18 L 112,18 L 111,17 L 113,15 L 112,14 L 112,13 L 113,12 L 114,12 L 115,11 L 114,12 L 111,12 L 112,13 L 112,14 L 111,15 L 110,14 L 112,16 L 111,17 L 112,18 L 113,18 L 114,19 L 113,20 L 111,20 L 107,16 L 107,15 L 106,14 L 106,13 L 104,11 L 104,8 L 103,7 L 103,6 L 104,5 L 104,3 L 105,2 Z" fill="none" stroke="white" stroke-width="1" /></svg>